<svg width="41" height="41" viewBox="0 0 41 41" fill="none" xmlns="http://www.w3.org/2000/svg">
<path d="M23.573 13.4704C23.573 15.3302 22.0653 16.8379 20.2055 16.8379C18.3456 16.8379 16.8379 15.3302 16.8379 13.4704C16.8379 11.6105 18.3456 10.1028 20.2055 10.1028C22.0653 10.1028 23.573 11.6105 23.573 13.4704Z" stroke="#898989" stroke-width="2.02054"/>
<path d="M16.8379 20.2056L13.2861 22.5734C12.3492 23.198 11.7865 24.2494 11.7865 25.3754V27.053C11.7865 27.9209 12.4901 28.6245 13.358 28.6245H20.2054" stroke="#898989" stroke-width="2.02054" stroke-linecap="round" stroke-linejoin="round"/>
<path d="M27.7825 13.4705V21.0475M27.7825 21.0475V24.8105C27.7825 25.5596 27.249 26.213 26.5002 26.1894C25.262 26.1504 23.573 25.7063 23.573 23.5732C23.573 20.2056 27.7825 21.0475 27.7825 21.0475Z" stroke="#898989" stroke-width="1.68378" stroke-linecap="round" stroke-linejoin="round"/>
</svg>
