<svg width="41" height="41" viewBox="0 0 41 41" fill="none" xmlns="http://www.w3.org/2000/svg">
<path d="M10.1027 19.432V26.9405C10.1027 27.8704 10.8565 28.6243 11.7864 28.6243H15.154C15.7202 28.653 16.195 28.2017 16.195 27.6348V22.7273C16.195 21.8017 16.9422 21.0496 17.8679 21.0436L22.6554 21.0126C23.5895 21.0066 24.35 21.7622 24.35 22.6964V27.7176C24.35 28.2183 24.756 28.6243 25.2567 28.6243H28.6243C29.5542 28.6243 30.3081 27.8704 30.3081 26.9405V19.432C30.3081 18.9368 30.09 18.4666 29.7119 18.1467L21.293 11.023C20.6652 10.4918 19.7455 10.4918 19.1177 11.023L10.6988 18.1467C10.3207 18.4666 10.1027 18.9368 10.1027 19.432Z" fill="#E0E0E0" stroke="#E0E0E0" stroke-width="2.3573" stroke-linecap="round" stroke-linejoin="round"/>
</svg>
