<svg width="41" height="41" viewBox="0 0 41 41" fill="none" xmlns="http://www.w3.org/2000/svg">
<path d="M24.7338 12.4645C24.9425 12.908 25.4713 13.0984 25.9148 12.8896C26.3583 12.6809 26.5487 12.1521 26.3399 11.7086L24.7338 12.4645ZM13.8048 16.1871C14.6809 16.045 14.6809 16.0454 14.681 16.0457C14.681 16.0458 14.6811 16.0462 14.6811 16.0463C14.6812 16.0467 14.6812 16.047 14.6812 16.0471C14.6813 16.0474 14.6813 16.0473 14.6812 16.0468C14.681 16.0457 14.6806 16.0431 14.68 16.0388C14.6787 16.0303 14.6766 16.0154 14.674 15.9947C14.6687 15.9532 14.6611 15.8883 14.6536 15.8035C14.6385 15.6334 14.6236 15.3852 14.6263 15.0857C14.6318 14.4804 14.7089 13.6973 14.9783 12.9313C15.2453 12.1721 15.6926 11.451 16.4326 10.9147C17.1704 10.3799 18.2742 9.97412 19.9514 9.97412V8.19897C17.9791 8.19897 16.4899 8.68077 15.3908 9.47737C14.2941 10.2724 13.661 11.3264 13.3037 12.3424C12.9488 13.3515 12.8578 14.3435 12.8512 15.0696C12.8479 15.4358 12.866 15.7424 12.8854 15.9606C12.8951 16.0699 12.9052 16.1576 12.9132 16.2201C12.9172 16.2514 12.9207 16.2764 12.9234 16.2947C12.9247 16.3039 12.9259 16.3114 12.9267 16.3172C12.9272 16.3201 12.9276 16.3225 12.9279 16.3246C12.9281 16.3256 12.9282 16.3265 12.9283 16.3273C12.9284 16.3277 12.9285 16.3282 12.9285 16.3284C12.9286 16.3289 12.9287 16.3293 13.8048 16.1871ZM19.9514 9.97412C21.4562 9.97412 22.4981 10.3011 23.2263 10.7513C23.9524 11.2002 24.4245 11.8073 24.7338 12.4645L26.3399 11.7086C25.9085 10.7919 25.2234 9.89898 24.1597 9.24137C23.0981 8.58504 21.7176 8.19897 19.9514 8.19897V9.97412Z" fill="#898989"/>
<path d="M26.1644 16.6309H13.7384C12.2678 16.6309 11.0757 17.823 11.0757 19.2936V28.6131C11.0757 30.0837 12.2678 31.2758 13.7384 31.2758H26.1644C27.635 31.2758 28.8271 30.0837 28.8271 28.6131V19.2936C28.8271 17.823 27.635 16.6309 26.1644 16.6309Z" stroke="#898989" stroke-width="1.77515"/>
<circle cx="19.9514" cy="24.1753" r="2.66272" stroke="#898989" stroke-width="1.77515"/>
</svg>
