<svg width="41" height="41" viewBox="0 0 41 41" fill="none" xmlns="http://www.w3.org/2000/svg">
<path d="M22.4407 8.82703H18.208C17.9258 8.82703 17.6812 8.91869 17.4743 9.10203C17.2674 9.28536 17.1451 9.51453 17.1075 9.78953L16.7688 12.347C16.5243 12.4387 16.294 12.5487 16.0781 12.677C15.8613 12.8054 15.6495 12.9429 15.4426 13.0895L12.9876 12.0995C12.7242 12.0079 12.4608 11.9987 12.1975 12.072C11.9341 12.1454 11.7272 12.3012 11.5767 12.5395L9.48852 16.087C9.33802 16.3254 9.29099 16.582 9.34743 16.857C9.40387 17.132 9.54496 17.352 9.7707 17.517L11.8871 19.0845C11.8683 19.2129 11.8589 19.3368 11.8589 19.4563V20.1988C11.8589 20.3176 11.8683 20.4412 11.8871 20.5695L9.7707 22.137C9.54496 22.302 9.40387 22.522 9.34743 22.797C9.29099 23.072 9.33802 23.3287 9.48852 23.567L11.5767 27.1145C11.7084 27.3712 11.9104 27.5318 12.1828 27.5963C12.456 27.6601 12.7242 27.6462 12.9876 27.5545L15.4426 26.5645C15.6495 26.7112 15.8659 26.8487 16.0916 26.977C16.3173 27.1054 16.5431 27.2154 16.7688 27.307L17.1075 29.8645C17.1451 30.1395 17.2674 30.3687 17.4743 30.552C17.6812 30.7354 17.9258 30.827 18.208 30.827H22.4407C22.7229 30.827 22.9675 30.7354 23.1744 30.552C23.3813 30.3687 23.5036 30.1395 23.5412 29.8645L23.8798 27.307C24.1244 27.2154 24.355 27.1054 24.5718 26.977C24.7877 26.8487 24.9992 26.7112 25.2061 26.5645L27.6611 27.5545C27.9245 27.6462 28.1878 27.6554 28.4512 27.582C28.7146 27.5087 28.9215 27.3529 29.072 27.1145L31.1602 23.567C31.3107 23.3287 31.3577 23.072 31.3013 22.797C31.2448 22.522 31.1037 22.302 30.878 22.137L28.7616 20.5695C28.7804 20.4412 28.7898 20.3176 28.7898 20.1988V19.4563C28.7898 19.3368 28.771 19.2129 28.7334 19.0845L30.8498 17.517C31.0755 17.352 31.2166 17.132 31.273 16.857C31.3295 16.582 31.2824 16.3254 31.1319 16.087L29.0438 12.567C28.8933 12.3287 28.6818 12.1681 28.4094 12.0852C28.1363 12.0031 27.868 12.0079 27.6047 12.0995L25.2061 13.0895C24.9992 12.9429 24.7828 12.8054 24.5571 12.677C24.3313 12.5487 24.1056 12.4387 23.8798 12.347L23.5412 9.78953C23.5036 9.51453 23.3813 9.28536 23.1744 9.10203C22.9675 8.91869 22.7229 8.82703 22.4407 8.82703Z" stroke="#898989" stroke-width="2"/>
<circle cx="3.34783" cy="3.34783" r="3.34783" transform="matrix(1 0 0 -1 16.9765 23.1748)" stroke="#898989" stroke-width="2"/>
</svg>
